<?xml version="1.0" encoding="UTF-8"?>
<svg id="Layer_1" data-name="Layer 1" xmlns="http://www.w3.org/2000/svg" viewBox="0 0 366.05 86.31">
  <defs>
    <style>
      .cls-1 {
        fill: #fff;
      }
    </style>
  </defs>
  <g>
    <polygon class="cls-1" points="67.68 42.67 50.83 19.65 69.41 19.65 77.87 31.22 85.87 19.65 104.11 19.65 87.25 44.02 111.94 77.74 99.64 86.31 77.04 55.45 69.22 66.76 50.99 66.76 67.68 42.67"/>
    <g>
      <path class="cls-1" d="M106.76,49.03V5.97h15.02v13.69h13.02v13.21h-13.02v12.74c0,6.08,3.14,7.7,7.51,7.7,1.62,0,3.61-.29,5.04-.86l1.62,12.83c-3.04,1.05-6.56,1.81-10.08,1.81-12.07,0-19.11-6.75-19.11-18.06"/>
      <path class="cls-1" d="M188.84,19.65h15.21v5.32c3.14-3.61,7.7-6.18,13.69-6.18,12.17,0,20.06,7.79,20.06,21.67v26.24h-15.21v-24.81c0-6.65-3.23-10.17-8.93-10.17-6.08,0-9.6,4.66-9.6,11.98v23h-15.21V19.65h0Z"/>
      <path class="cls-1" d="M276.55,43.13c0-6.46-4.66-11.22-10.55-11.22s-10.46,4.75-10.46,11.22,4.56,11.22,10.46,11.22,10.55-4.75,10.55-11.22m-36.12,0c0-13.88,9.22-24.34,21.67-24.34,6.46,0,11.41,2.57,14.45,6.46V0h15.21V66.7h-15.21v-5.61c-3.04,3.99-7.98,6.46-14.45,6.46-12.45,0-21.67-10.55-21.67-24.43"/>
      <path class="cls-1" d="M152.46,37.98c1.52-4.56,4.94-7.22,9.89-7.22,4.66,0,7.7,2.38,9.13,7.22h-19.02Zm33.65,10.08c.1-1.81,.1-3.52,.1-5.32,0-15.87-9.89-24.24-23.86-24.24s-24.91,10.65-24.91,25c0,1.58,.13,3.1,.37,4.56,.72,4.35,2.57,8.49,5.5,11.8,2.88,3.25,6.68,5.59,10.82,6.86,5.27,1.61,10.89,1.55,16.12-.16,4.19-1.37,8-3.85,10.82-7.26,1.92-2.32,3.35-5.02,4.24-7.89h-15.34c-.12,0-.76,.97-.89,1.11-.35,.38-.72,.73-1.12,1.05-.78,.63-1.66,1.13-2.59,1.5-4.7,1.87-10.29-.88-12.37-5.3-.26-.55-.47-1.12-.64-1.71h33.75Z"/>
    </g>
    <polygon class="cls-1" points="0 .06 48.19 .06 48.19 14.28 16.13 14.28 16.13 26.4 46.12 26.4 46.12 40.24 16.13 40.24 16.13 52.65 48.19 52.65 48.19 66.86 0 66.86 0 .06"/>
    <path class="cls-1" d="M300.82,4.17c.55,0,.92-.3,.92-.85s-.37-.85-.92-.85h-.92v1.7h.92Zm-1.52-2.24h1.57c.85,0,1.45,.55,1.45,1.4,0,.67-.37,1.15-.95,1.32l.77,1.77h-.65l-.72-1.7h-.87v1.7h-.6V1.93Zm4.47,2.32c0-1.77-1.35-3.07-3.04-3.07s-3.07,1.3-3.07,3.07,1.37,3.04,3.07,3.04,3.04-1.32,3.04-3.04m-6.81,0c0-2.09,1.67-3.77,3.77-3.77s3.74,1.65,3.74,3.77-1.67,3.74-3.74,3.74-3.77-1.67-3.77-3.74"/>
  </g>
  <g>
    <path class="cls-1" d="M302.4,33.22v11.69h-1.71v-11.69h-3.72v-1.64h9.16v1.64h-3.72Z"/>
    <path class="cls-1" d="M307.61,31.58h1.71v4.21l-.07,1.27h.07c.26-.45,.66-.82,1.2-1.12,.54-.3,1.1-.45,1.69-.45,1.12,0,1.98,.32,2.58,.96,.6,.64,.9,1.55,.9,2.73v5.73h-1.71v-5.4c0-1.64-.73-2.46-2.18-2.46-.7,0-1.28,.29-1.76,.86-.48,.58-.72,1.25-.72,2.02v4.97h-1.71v-13.33Z"/>
    <path class="cls-1" d="M321.8,45.21c-1.34,0-2.44-.46-3.31-1.38-.87-.92-1.3-2.08-1.3-3.48s.42-2.55,1.27-3.47c.84-.92,1.92-1.39,3.24-1.39s2.43,.44,3.23,1.31c.8,.88,1.2,2.1,1.2,3.68l-.02,.19h-7.17c.02,.89,.32,1.61,.89,2.16,.57,.55,1.25,.82,2.05,.82,1.09,0,1.95-.55,2.57-1.64l1.53,.74c-.41,.77-.98,1.37-1.7,1.81s-1.55,.65-2.47,.65Zm-2.74-5.96h5.23c-.05-.63-.31-1.16-.77-1.57-.47-.42-1.09-.62-1.87-.62-.65,0-1.2,.2-1.67,.6-.47,.4-.77,.93-.92,1.6Z"/>
    <path class="cls-1" d="M332.85,44.91h-1.9l5.03-13.33h1.94l5.03,13.33h-1.9l-1.28-3.61h-5.6l-1.3,3.61Zm4.06-11.23l-2.18,6.01h4.43l-2.18-6.01h-.07Z"/>
    <path class="cls-1" d="M347.75,45.21c-1.19,0-2.22-.47-3.07-1.41-.84-.96-1.27-2.1-1.27-3.44s.42-2.49,1.27-3.44c.86-.94,1.88-1.42,3.07-1.42,.67,0,1.28,.14,1.83,.43s.98,.66,1.28,1.14h.07l-.07-1.27v-4.21h1.71v13.33h-1.64v-1.27h-.07c-.3,.47-.72,.85-1.28,1.14s-1.16,.43-1.83,.43Zm.28-1.56c.84,0,1.53-.3,2.07-.91,.56-.61,.84-1.4,.84-2.38s-.28-1.74-.84-2.36c-.55-.62-1.24-.93-2.07-.93s-1.51,.31-2.07,.93c-.56,.62-.84,1.41-.84,2.36s.28,1.76,.84,2.36c.56,.62,1.25,.93,2.07,.93Z"/>
    <path class="cls-1" d="M299.56,67.25h-1.71v-13.33h2.09l6.48,10.37h.07l-.07-2.57v-7.8h1.71v13.33h-1.79l-6.78-10.87h-.07l.07,2.57v8.3Z"/>
    <path class="cls-1" d="M314.61,67.55c-1.34,0-2.44-.46-3.31-1.38-.87-.92-1.3-2.08-1.3-3.48s.42-2.55,1.27-3.47c.84-.92,1.92-1.39,3.24-1.39s2.43,.44,3.23,1.31c.8,.88,1.2,2.1,1.2,3.68l-.02,.19h-7.17c.02,.89,.32,1.61,.89,2.16,.57,.55,1.25,.82,2.05,.82,1.09,0,1.95-.55,2.57-1.64l1.53,.74c-.41,.77-.98,1.37-1.7,1.81s-1.55,.65-2.47,.65Zm-2.74-5.96h5.23c-.05-.63-.31-1.16-.77-1.57-.47-.42-1.09-.62-1.87-.62-.65,0-1.2,.2-1.67,.6-.47,.4-.77,.93-.92,1.6Z"/>
    <path class="cls-1" d="M323.82,67.4c-.74,0-1.36-.23-1.85-.69-.49-.46-.74-1.1-.75-1.92v-5.1h-1.6v-1.56h1.6v-2.79h1.71v2.79h2.23v1.56h-2.23v4.54c0,.61,.12,1.02,.35,1.24s.5,.33,.8,.33c.14,0,.27-.02,.4-.05,.13-.03,.25-.07,.36-.12l.54,1.53c-.45,.16-.97,.24-1.56,.24Z"/>
    <path class="cls-1" d="M340,58.13l-2.94,9.12h-1.75l-2.27-7-2.25,7h-1.73l-2.94-9.12h1.79l2.03,6.89h.02l2.25-6.89h1.77l2.25,6.89h.02l2.01-6.89h1.75Z"/>
    <path class="cls-1" d="M340.41,62.69c0-1.4,.44-2.56,1.32-3.48,.89-.92,2.02-1.38,3.37-1.38s2.47,.46,3.35,1.38c.89,.92,1.34,2.08,1.34,3.48s-.45,2.58-1.34,3.48c-.88,.92-2,1.38-3.35,1.38s-2.48-.46-3.37-1.38c-.88-.92-1.32-2.08-1.32-3.48Zm1.71,0c0,.98,.29,1.77,.86,2.38,.57,.61,1.28,.91,2.12,.91s1.55-.3,2.12-.91c.57-.61,.86-1.4,.86-2.38s-.29-1.76-.86-2.36c-.58-.62-1.29-.93-2.12-.93s-1.54,.31-2.12,.93c-.57,.61-.86,1.4-.86,2.36Z"/>
    <path class="cls-1" d="M352.88,67.25h-1.71v-9.12h1.64v1.49h.07c.17-.48,.53-.9,1.07-1.24,.54-.34,1.07-.51,1.59-.51s.92,.07,1.27,.22l-.52,1.66c-.21-.09-.55-.13-1.01-.13-.65,0-1.21,.26-1.69,.78s-.72,1.13-.72,1.82v5.03Z"/>
    <path class="cls-1" d="M366.05,67.25h-2.07l-2.85-4.3-1.4,1.38v2.92h-1.71v-13.33h1.71v8.21l3.95-4h2.2v.07l-3.56,3.54,3.72,5.44v.07Z"/>
  </g>
</svg>