<?xml version="1.0" encoding="UTF-8"?>
<svg id="Layer_1" data-name="Layer 1" xmlns="http://www.w3.org/2000/svg" viewBox="0 0 561.09 173.31">
  <defs>
    <style>
      .cls-1 {
        fill: #fff;
      }
    </style>
  </defs>
  <g>
    <g>
      <path class="cls-1" d="M255.98,103.06c-5.08-8.14-12.68-13.85-20.35-20.91-4.88,6.71-9.94,12.74-13.93,19.41-4.32,7.23-2.18,11.82,5.72,14.74,5.34,1.97,10.69,3.91,16.2,5.92,.97-2.37,2.1-5.1,3.52-8.56,2.26,4.11,3.56,7.61,2.19,11.63-.13,.39-.29,.74-.46,1.08-20.95,6.25-44.08,13.73-48.11,15.01-9.99,3.17-19.95,6.51-30.1,9.07-6.32,1.59-12.89,1.03-19.02-1.76-9.39-4.26-13.86-15.78-9.5-24.82,13.84,5.08,28.11,4.46,42.41,2.63,8.84-1.13,17.63-2.96,22.88-11.15,2.96-4.62,5.16-9.78,7.3-14.86,1.4-3.32,1.15-6.89-1.26-9.85-5.88-7.22-17.74-15.3-30.78-9.85-6.53,2.73-12.71,6.52-18.59,10.51-4.57,3.1-8.55,7.1-13.11,11.1l-7.26,7.06c-4.07-2.89-9.93-8.68-12.42-13.21-.84-1.46-1.52-2.73-2.1-3.73-1.8-4.54-3.98-8.96-6.37-13.21-5.14-9.16-11.09-17.87-16.09-27.09-9.25-17.06-9.41-34.19,.84-51.05,.2-.33,.23-.78,.33-1.17-3.27,3.09-6.19,6.37-8.66,9.95-8.98,13.01-11.21,27.02-4.84,41.7,2.97,6.85,6.9,13.3,10.59,19.82,4.78,8.43,9.98,16.69,14.42,25.3,.12,.24,.23,.47,.35,.71l.09,.21c.38,.79,.75,1.58,1.11,2.38,3.35,7.86,4.35,16.09,2.17,24.65-.35,.23-.73,.45-1.16,.64-5.52,2.35-10.87,5.18-16.53,7.09-30.78,10.38-61.08,9.79-90.55-4.79-4.8-2.37-9.38-5.19-14.91-8.28,.93,1.32,1.22,1.92,1.68,2.36,7.84,7.49,15.59,15.08,23.59,22.39,5.02,4.58,11.22,6.81,18,7.27,6.34,.43,12.68,1.05,19.02,.98,16.27-.18,32.19-2.47,47.45-8.6,10.92-4.39,19.12-14.87,21.5-27.72,1.65,1.71,3.35,3.23,4.96,4.44,.66,.49,.81,2.18,.61,3.19-.75,3.72-2.05,7.35-2.6,11.1-1.87,12.8,4.44,24.2,15.11,27.67,6.46,2.1,13.17,2.18,19.51,.31,9.82-2.89,19.38-6.66,29.05-10.05,2.75-.97,40.29-13.92,43.69-15.1v.03c5.6-3.03,10.02-8.05,13.6-14.19,3.73-6.41,5.14-13.51,.83-20.42l-.02,.02Zm-26.54-8.31c4.37,3.92,8.62,7.74,12.87,11.55-8.55,.09-16.17-5.13-12.87-11.55Zm-47.22-2.57c9.07-1.78,20.75,4.14,25.51,12.16,1.58,2.67,1.15,4.08-1.83,5.06-6.85,2.26-13.54,3.79-20.44,4.94-10.98,1.83-26.36,.66-36.17-2.24,10.28-8.71,19.81-17.36,32.93-19.93h0Z"/>
      <path class="cls-1" d="M15.99,97.46c3.72,.51,4.1,2.78,5.26,4.98,.85,1.63,1.37,3.42,2.18,5.07,.34,.7,1.02,1.23,2.08,2.46,.25-2.1,.39-3.31,.53-4.53,.55-4.68,.8-9.43,1.74-14.03,.91-4.45,2.09-4.88,6.44-3.42-.23-1.83-.11-3.65-.76-5.15-.39-.91-2.03-1.92-2.96-1.79-1.08,.15-2.6,1.34-2.87,2.36-1.38,5.06-2.41,10.22-3.7,15.93-2.41-6.24-4.42-12.51-11.72-14.12-3.2,6.27-1.89,11.44,3.79,12.23h0Z"/>
      <path class="cls-1" d="M178.33,52.06c-.14-.11-.43-.03-.72-.05-1.48,1.38-3,2.78-4.51,4.19-1.52,1.42-3.04,2.85-4.29,4.03,3.62,3.37,6.78,6.32,9.94,9.26,9.15-9.79,10.68-9.02-.42-17.43h0Z"/>
      <path class="cls-1" d="M231.01,54.34c-.14-.11-.43-.03-.72-.05-1.48,1.38-3,2.78-4.51,4.19-1.52,1.42-3.04,2.85-4.29,4.03,3.62,3.37,6.78,6.32,9.94,9.26,9.15-9.79,10.68-9.02-.42-17.43h0Z"/>
    </g>
    <path class="cls-1" d="M244.48,28.26c-.91,.93-1.66,2.27-2.77,2.74-10.18,4.28-20.43,8.41-30.66,12.58-.17,.07-.42-.04-1.36-.16,1.19-1.43,1.91-3.11,3.12-3.63,10.23-4.35,20.55-8.49,30.84-12.69,.28,.39,.55,.77,.83,1.16h0Z"/>
    <path class="cls-1" d="M356,157.97c-.91,.93-1.66,2.27-2.77,2.74-10.18,4.28-20.43,8.41-30.66,12.58-.17,.07-.42-.04-1.36-.16,1.19-1.43,1.91-3.11,3.12-3.63,10.23-4.35,20.55-8.49,30.84-12.69,.28,.39,.55,.77,.83,1.16h0Z"/>
    <g>
      <path class="cls-1" d="M271.01,126.48c8.51-.35,13.68-1.13,15.52-2.34s3.97-3.51,6.38-6.91c2.9-4.04,4.36-7.4,4.36-10.1s-2.18-4.15-6.54-4.15-6.54-.5-6.54-1.49c0-2.83,2.2-4.64,6.59-5.42,.35-.07,1.05-1.38,2.07-3.94,1.03-2.55,1.54-4.29,1.54-5.21,0-.43-.29-.64-.85-.64-2.34,0-5.51,2.82-9.52,8.45-4.01,5.64-6.01,10.23-6.01,13.77s4.11,5.6,12.33,5.74c-.85,1.7-3.72,3.65-8.61,5.85-3.62,1.49-7.27,2.98-10.95,4.47-1.21,.5-1.81,.92-1.81,1.28,0,.5,.67,.71,2.02,.64h.02Z"/>
      <path class="cls-1" d="M366.47,101.48c-1.77-5.97-4.71-11.52-7.74-16.93-5.14-9.16-11.09-17.87-16.09-27.09-9.25-17.06-9.41-34.19,.84-51.05,.2-.33,.23-.78,.33-1.17-3.27,3.09-6.19,6.37-8.66,9.95-8.98,13.01-11.21,27.02-4.84,41.7,2.97,6.85,6.9,13.3,10.59,19.82,4.78,8.43,10.14,16.55,14.57,25.15,1.87,4.65,3.93,9.16,4.77,14.14,.18,1.04,.32,2.08,.44,3.12,.04,.35,.08,.7,.11,1.04,.2,1.96,.46,4.96-1.9,5.74-6.85,2.26-13.54,3.79-20.44,4.94-.73,.12-1.48,.22-2.25,.32,2.38-7.88,3.38-16.65,.61-24.63-1.99-5.74-4.67-11.32-7.64-16.62-5.14-9.16-11.09-17.87-16.09-27.09-9.25-17.06-9.41-34.19,.84-51.05,.2-.33,.23-.78,.33-1.17-3.27,3.09-6.19,6.37-8.66,9.95-8.98,13.01-11.21,27.02-4.84,41.7,2.97,6.85,6.9,13.3,10.59,19.82,4.78,8.43,10.14,16.55,14.57,25.15,4.53,8.78,6.05,18.19,3.62,27.9-.37,.28-.76,.56-1.22,.83-5.48,3.29-10.87,5.18-16.53,7.09-30.78,10.38-61.08,9.79-90.55-4.79-4.8-2.37-9.38-5.19-14.91-8.28,.93,1.32,1.22,1.92,1.68,2.36,7.84,7.49,15.59,15.08,23.59,22.39,5.02,4.58,11.22,6.81,18,7.27,6.34,.43,12.68,1.05,19.02,.98,16.27-.18,32.19-2.47,47.45-8.6,6.13-2.46,10.94-5.97,14.41-10.59,2.35-.21,4.7-.47,7.05-.77,8.84-1.13,17.63-2.96,22.88-11.15,2.96-4.62,5.16-9.78,7.3-14.86,1.92-4.56,.1-11-1.24-15.53h0Z"/>
    </g>
    <path class="cls-1" d="M112.5,165.02c1.43-4.66,6.22-12.37,10.5-4.54,.44,.87,.99,1.74,1.43,2.73h.31c.99-1.99,1.99-3.85,2.98-5.72v-.44c-.87-1.74-2.24-4.29-3.67-5.66-5.72-5.28-11.37,9.82-12.37,13.12-.19,.81,.68,1.06,.81,.5h.01Z"/>
  </g>
  <g>
    <path class="cls-1" d="M417.38,95.27v6.2c-1.5,5.5-6.49,8.47-12.25,8.47-7.48,0-13.09-5.9-13.09-13.2s5.72-13.2,13.09-13.2c5.57,0,9.17,2.46,11.33,6.09l-5.68,3.04c-1.25-1.87-3.04-3.01-5.65-3.01-4.14,0-6.97,3.15-6.97,7.08,0,4.22,2.93,7.33,7.11,7.33,2.75,0,4.8-1.06,5.83-2.75v-1.5h-4.36v-4.55h10.64Z"/>
    <path class="cls-1" d="M420.06,91.42h5.87v2.27c1.58-1.94,3.59-2.64,6.6-2.64v5.72c-.73-.11-1.21-.15-1.83-.15-2.53,0-4.77,1.47-4.77,5.21v7.74h-5.87v-18.15h0Z"/>
    <path class="cls-1" d="M433.55,100.48c0-5.35,3.56-9.39,8.36-9.39,2.49,0,4.29,.88,5.57,2.42v-2.09h5.87v18.15h-5.87v-2.09c-1.28,1.5-3.08,2.42-5.57,2.42-4.8,0-8.36-4.07-8.36-9.43h0Zm13.93,0c0-2.49-1.8-4.33-4.07-4.33s-4.03,1.83-4.03,4.33,1.76,4.33,4.03,4.33,4.07-1.83,4.07-4.33Z"/>
    <path class="cls-1" d="M459.11,102.75v-6.23h-3.67v-5.1h3.67v-5.28h5.79v5.28h5.02v5.1h-5.02v4.91c0,2.35,1.21,2.97,2.9,2.97,.62,0,1.39-.11,1.94-.33l.62,4.95c-1.17,.4-2.53,.7-3.89,.7-4.66,0-7.37-2.6-7.37-6.97h.01Z"/>
    <path class="cls-1" d="M472.86,85.63c0-1.69,1.5-3.12,3.26-3.12s3.23,1.43,3.23,3.12c0,1.83-1.47,3.26-3.23,3.26s-3.26-1.43-3.26-3.26Zm.4,5.79h5.76v18.15h-5.76v-18.15Z"/>
    <path class="cls-1" d="M484.85,102.75v-6.23h-3.67v-5.1h3.67v-5.28h5.79v5.28h5.02v5.1h-5.02v4.91c0,2.35,1.21,2.97,2.9,2.97,.62,0,1.39-.11,1.94-.33l.62,4.95c-1.17,.4-2.53,.7-3.89,.7-4.66,0-7.37-2.6-7.37-6.97h.01Z"/>
    <path class="cls-1" d="M498.64,101.54v-10.12h5.87v9.42c0,2.57,1.32,3.96,3.52,3.96s3.63-1.65,3.63-4.66v-8.73h5.87v18.15h-5.76v-2.13h-.07c-1.14,1.36-2.97,2.35-5.24,2.35-4.66,0-7.81-3.01-7.81-8.25h-.01Z"/>
    <path class="cls-1" d="M520.02,100.48c0-5.35,3.56-9.39,8.36-9.39,2.49,0,4.4,.99,5.57,2.49v-11.52h5.87v27.5h-5.87v-2.16c-1.17,1.54-3.08,2.49-5.57,2.49-4.8,0-8.36-4.07-8.36-9.43v.02Zm13.93,0c0-2.49-1.8-4.33-4.07-4.33s-4.03,1.83-4.03,4.33,1.76,4.33,4.03,4.33,4.07-1.83,4.07-4.33Z"/>
    <path class="cls-1" d="M561.09,100.22c0,.7,0,1.36-.04,2.05h-13.02c.59,2.02,2.27,2.93,4.03,2.93s3.08-.55,4.18-1.72l3.45,2.93c-1.76,2.35-4.69,3.52-7.77,3.52-5.5,0-9.64-3.78-9.64-9.42s4.07-9.64,9.61-9.64,9.2,3.23,9.2,9.35Zm-13.02-1.83h7.33c-.55-1.87-1.72-2.79-3.52-2.79-1.91,0-3.23,1.03-3.81,2.79Z"/>
    <path class="cls-1" d="M394.92,121.93h18.52v5.46h-12.32v4.66h12.06v5.32h-12.06v4.77h12.32v5.46h-18.52v-25.67h0Z"/>
    <path class="cls-1" d="M421.58,138.36l-6.31-8.91h7.08l3.19,5.06,3.12-5.06h7.08l-6.27,8.91,13.06,16.03h-7.04l-9.95-12.22-3.23,5.43h-7.04l6.31-9.24h0Z"/>
    <path class="cls-1" d="M440.65,140.78v-6.23h-3.67v-5.1h3.67v-5.28h5.79v5.28h5.02v5.1h-5.02v4.91c0,2.35,1.21,2.97,2.9,2.97,.62,0,1.39-.11,1.94-.33l.62,4.95c-1.17,.4-2.53,.7-3.89,.7-4.66,0-7.37-2.6-7.37-6.97h.01Z"/>
    <path class="cls-1" d="M472.3,138.25c0,.7,0,1.36-.04,2.05h-13.02c.59,2.02,2.27,2.93,4.03,2.93s3.08-.55,4.18-1.72l3.45,2.93c-1.76,2.35-4.69,3.52-7.77,3.52-5.5,0-9.64-3.78-9.64-9.42s4.07-9.64,9.61-9.64,9.2,3.23,9.2,9.35Zm-13.02-1.83h7.33c-.55-1.87-1.72-2.79-3.52-2.79-1.91,0-3.23,1.03-3.81,2.79Z"/>
    <path class="cls-1" d="M474.68,129.45h5.87v2.05c1.21-1.39,2.97-2.38,5.28-2.38,4.69,0,7.74,3.01,7.74,8.36v10.12h-5.87v-9.57c0-2.57-1.25-3.92-3.45-3.92-2.35,0-3.7,1.8-3.7,4.62v8.87h-5.87v-18.15h0Z"/>
    <path class="cls-1" d="M495.84,138.51c0-5.35,3.56-9.39,8.36-9.39,2.49,0,4.4,.99,5.57,2.49v-11.52h5.87v27.5h-5.87v-2.16c-1.17,1.54-3.08,2.49-5.57,2.49-4.8,0-8.36-4.07-8.36-9.43v.02Zm13.93,0c0-2.49-1.8-4.33-4.07-4.33s-4.03,1.83-4.03,4.33,1.76,4.33,4.03,4.33,4.07-1.83,4.07-4.33Z"/>
    <path class="cls-1" d="M536.91,138.25c0,.7,0,1.36-.04,2.05h-13.02c.59,2.02,2.27,2.93,4.03,2.93s3.08-.55,4.18-1.72l3.45,2.93c-1.76,2.35-4.69,3.52-7.77,3.52-5.5,0-9.64-3.78-9.64-9.42s4.07-9.64,9.61-9.64,9.2,3.23,9.2,9.35Zm-13.02-1.83h7.33c-.55-1.87-1.72-2.79-3.52-2.79-1.91,0-3.23,1.03-3.81,2.79Z"/>
    <path class="cls-1" d="M538.41,138.51c0-5.35,3.56-9.39,8.36-9.39,2.49,0,4.4,.99,5.57,2.49v-11.52h5.87v27.5h-5.87v-2.16c-1.17,1.54-3.08,2.49-5.57,2.49-4.8,0-8.36-4.07-8.36-9.43v.02Zm13.93,0c0-2.49-1.8-4.33-4.07-4.33s-4.03,1.83-4.03,4.33,1.76,4.33,4.03,4.33,4.07-1.83,4.07-4.33Z"/>
  </g>
</svg>